<svg xmlns="http://www.w3.org/2000/svg" viewBox="0 0 53.83 10"><defs><style>.cls-1{fill:#0000c8;}</style></defs><title>Asset 1</title><g id="Layer_2" data-name="Layer 2"><g id="레이어_1" data-name="레이어 1"><path class="cls-1" d="M0,10,3.72,0h3l3.72,10H7.6L6.91,8H3.46l-.69,2ZM6.31,6.15,5.19,2.85,4.06,6.15Z"/><path class="cls-1" d="M25.15,5a4.77,4.77,0,0,1-.67,2.5,4.85,4.85,0,0,1-1.7,1.7,5.34,5.34,0,0,1-1.87.65,16.18,16.18,0,0,1-2.15.14H15.32V0h3.42a16.55,16.55,0,0,1,2.17.13,5.07,5.07,0,0,1,1.9.66,4.65,4.65,0,0,1,1.71,1.7A4.86,4.86,0,0,1,25.15,5ZM22.31,5a3.54,3.54,0,0,0-.37-1.69,2.61,2.61,0,0,0-1.15-1.1,2.92,2.92,0,0,0-1.18-.31l-1.47,0h-.05V8.13h.05c.62,0,1.14,0,1.57,0A2.71,2.71,0,0,0,22,6.66,3.65,3.65,0,0,0,22.31,5Z"/><path class="cls-1" d="M30.56,10V0H38V1.91H33.31V3.66h4.32V5.57H33.31V8.09H38V10Z"/><path class="cls-1" d="M53.83,10H50.46L47.39,6.33h-1V10H43.65V0h4.43a10.55,10.55,0,0,1,1.59.1,3.57,3.57,0,0,1,1.26.44,2.82,2.82,0,0,1,.94.87,2.4,2.4,0,0,1,.35,1.34,2.91,2.91,0,0,1-.57,1.86,3.94,3.94,0,0,1-1.52,1.14ZM49.38,3.06a1.25,1.25,0,0,0-.16-.65A1,1,0,0,0,48.69,2a2,2,0,0,0-.57-.12c-.22,0-.48,0-.79,0H46.4V4.53h.79a6.75,6.75,0,0,0,1-.06,1.43,1.43,0,0,0,.68-.27,1.3,1.3,0,0,0,.4-.45A1.55,1.55,0,0,0,49.38,3.06Z"/></g></g></svg>