<?xml version="1.0" encoding="UTF-8" standalone="no"?>
<!-- Generator: Adobe Illustrator 25.4.1, SVG Export Plug-In . SVG Version: 6.00 Build 0)  -->

<svg
   xmlns:dc="http://purl.org/dc/elements/1.1/"
   xmlns:cc="http://creativecommons.org/ns#"
   xmlns:rdf="http://www.w3.org/1999/02/22-rdf-syntax-ns#"
   xmlns:svg="http://www.w3.org/2000/svg"
   xmlns="http://www.w3.org/2000/svg"
   xmlns:sodipodi="http://sodipodi.sourceforge.net/DTD/sodipodi-0.dtd"
   xmlns:inkscape="http://www.inkscape.org/namespaces/inkscape"
   version="1.1"
   id="Calque_1"
   x="0px"
   y="0px"
   viewBox="0 0 671 136.39999"
   xml:space="preserve"
   sodipodi:docname="logo-mk-2.svg"
   width="671"
   height="136.39999"
   inkscape:version="0.92.5 (2060ec1f9f, 2020-04-08)"><metadata
   id="metadata1016"><rdf:RDF><cc:Work
       rdf:about=""><dc:format>image/svg+xml</dc:format><dc:type
         rdf:resource="http://purl.org/dc/dcmitype/StillImage" /></cc:Work></rdf:RDF></metadata><defs
   id="defs1014" /><sodipodi:namedview
   pagecolor="#ebebebfff"
   bordercolor="#666666"
   borderopacity="1"
   objecttolerance="10"
   gridtolerance="10"
   guidetolerance="10"
   inkscape:pageopacity="0"
   inkscape:pageshadow="2"
   inkscape:window-width="1920"
   inkscape:window-height="1043"
   id="namedview1012"
   showgrid="false"
   inkscape:zoom="1.6696658"
   inkscape:cx="334"
   inkscape:cy="68.3"
   inkscape:window-x="0"
   inkscape:window-y="0"
   inkscape:window-maximized="1"
   inkscape:current-layer="Calque_1" />
<style
   type="text/css"
   id="style963">
	
</style>
<g
   id="g1009"
   transform="translate(-55,-125.9)">
	<g
   id="g975">
		<path
   class="st0"
   d="m 345.5,252.6 v 9.2 h -3 V 241 h 7.9 c 2,0 3.3,0.5 4.4,1.4 1.3,1.1 2.1,2.7 2.1,4.4 0,1.8 -0.8,3.4 -2.1,4.4 -1,0.9 -2.3,1.4 -4.4,1.4 z m 4.8,-2.8 c 1.4,0 2.2,-0.4 2.7,-0.9 0.5,-0.5 0.8,-1.3 0.8,-2.1 0,-0.8 -0.3,-1.5 -0.8,-2.1 -0.5,-0.6 -1.3,-0.9 -2.7,-0.9 h -4.8 v 6 z"
   id="path965"
   inkscape:connector-curvature="0"
    />
		<path
   class="st0"
   d="M 374.8,256.5 H 366 l -2.2,5.4 h -3.1 l 8.7,-20.9 h 2.1 l 8.7,20.9 H 377 Z m -7.6,-2.9 h 6.4 l -3.2,-7.8 z"
   id="path967"
   inkscape:connector-curvature="0"
    />
		<path
   class="st0"
   d="m 391.3,252 v 9.8 h -3 V 241 h 7.3 c 1.9,0 3.1,0.4 4.1,1.2 1.3,1 2.1,2.6 2.1,4.3 0,1.7 -0.8,3.3 -2.1,4.3 -0.7,0.5 -1.4,0.9 -2.4,1.1 l 7.5,10 h -3.6 l -7.4,-9.8 h -2.5 z m 4.2,-2.8 c 1.3,0 2,-0.3 2.5,-0.8 0.5,-0.5 0.8,-1.2 0.8,-1.9 0,-0.7 -0.3,-1.4 -0.8,-1.9 -0.5,-0.5 -1.2,-0.8 -2.5,-0.8 h -4.2 v 5.4 z"
   id="path969"
   inkscape:connector-curvature="0"
    />
		<path
   class="st0"
   d="m 412.8,241 h 3 v 20.9 h -3 z"
   id="path971"
   inkscape:connector-curvature="0"
    />
		<path
   class="st0"
   d="m 426.8,256.6 c 1.2,1.5 3,2.7 5.1,2.7 1.9,0 3.6,-1.3 3.6,-3.1 0,-3.2 -4.4,-3.5 -7.2,-5.4 -1.5,-1 -2.7,-2.4 -2.7,-4.6 0,-3 2.7,-5.5 6.3,-5.5 2.7,0 4.5,1.2 5.6,2.1 l -1.8,2.2 c -1.1,-1 -2.4,-1.4 -3.7,-1.4 -1.7,0 -3.5,1 -3.5,2.8 0,2.7 4.4,3.2 7.1,5 1.4,0.9 2.7,2.4 2.7,4.8 0,3.7 -2.8,6.1 -6.5,6.1 -2.9,0 -5.5,-1.3 -7.3,-3.5 z"
   id="path973"
   inkscape:connector-curvature="0"
    />
	</g>
	<g
   id="g1007">
		<path
   class="st0"
   d="m 277.6,147.7 c -13.9,0 -29.5,13 -29.5,30.5 0,16.8 13.3,30.4 29.5,30.4 15.7,0 29.5,-14.2 29.5,-30.4 0,-18.2 -15.3,-30.5 -29.5,-30.5 z m 0,58.1 c -13.2,0 -18.5,-8 -18.5,-27.6 0,-11.9 1.9,-27.7 18.5,-27.7 8,0 18.5,2.9 18.5,27.7 0,19.6 -5.3,27.6 -18.5,27.6 z"
   id="path977"
   inkscape:connector-curvature="0"
    />
		<polygon
   class="st0"
   points="55,148.9 55,207.2 57.8,207.2 57.8,155.6 76.9,208.8 96.1,155.1 96.1,207.2 105.9,207.2 105.9,148.9 95.5,148.9 80.6,190.7 65.7,148.9 "
   id="polygon979"
    />
		<path
   class="st0"
   d="m 141.1,147.6 h -3 l -23.3,59.6 h 2.9 L 126.8,184 H 145 l 9.2,23.2 h 10.5 L 141.4,148 Z m -13.2,33.8 8,-20.4 8,20.4 z"
   id="path981"
   inkscape:connector-curvature="0"
    />
		<rect
   x="174.7"
   y="148.89999"
   class="st0"
   width="9.8000002"
   height="58.299999"
   id="rect983"
    />
		<polygon
   class="st0"
   points="406.5,175.2 406.5,148.9 396.7,148.9 396.7,207.2 406.5,207.2 406.5,178.5 431.9,207 432.1,207.2 445.1,207.2 413.3,172.3 436.2,148.9 432.5,148.9 "
   id="polygon985"
    />
		<rect
   x="451.60001"
   y="148.89999"
   class="st0"
   width="9.8000002"
   height="58.299999"
   id="rect987"
    />
		<polygon
   class="st0"
   points="491.1,207.2 500.9,207.2 500.9,151.5 521.9,151.5 521.9,149 470,149 470,151.5 491.1,151.5 "
   id="polygon989"
    />
		<path
   class="st0"
   d="m 229.8,174.7 c -2.6,-1 -9.9,-2.9 -13.9,-4.3 -4.1,-1.4 -11.4,-3.2 -11.4,-10.2 0,-5.8 4.9,-10.2 13.1,-10.2 8.9,0 14.3,7.7 14.8,14.8 h 2.5 c 0,-4 -3.7,-17.4 -17.5,-17.4 -10.5,0 -18.9,6.6 -18.9,17.5 0,8.5 5.4,11.8 14.1,14.8 4.1,1.4 7.2,2.1 9.5,2.8 6.2,1.9 10.5,5.6 10.5,11.1 0,7.9 -6.6,12.2 -13.9,12.2 -13.8,0 -18,-8.7 -19.5,-17.3 h -2.4 c 0.6,6.2 4.2,19.9 21.8,19.9 12.3,0 21.8,-7.1 21.8,-19.6 0.1,-6.9 -3.8,-11.5 -10.6,-14.1 z"
   id="path991"
   inkscape:connector-curvature="0"
    />
		<polygon
   class="st0"
   points="353.4,148.9 353.4,190.6 327.8,149.2 327.6,148.9 318.3,148.9 318.3,207.2 321,207.2 321,156.3 353.2,207.8 356.1,207.8 356.1,148.9 "
   id="polygon993"
    />
		<g
   id="g1005">
			<polygon
   class="st0"
   points="692.9,204.5 692.9,177.3 711.3,177.3 711.3,175.4 711.3,174.7 710.6,174.7 693,174.7 693,151.5 722.8,151.5 722.8,149.7 722.8,148.9 722.1,148.9 683.2,148.9 683.2,206.4 683.2,207.1 683.9,207.1 726,207.1 726,205.3 726,204.5 725.2,204.5 "
   id="polygon995"
    />
			<path
   class="st0"
   d="m 557.1,174.7 c -2.6,-1 -9.9,-2.9 -13.9,-4.3 -4.1,-1.4 -11.4,-3.2 -11.4,-10.2 0,-5.8 4.9,-10.2 13.1,-10.2 8.9,0 14.3,7.7 14.8,14.8 h 2.5 c 0,-4 -3.7,-17.4 -17.5,-17.4 -10.5,0 -18.9,6.6 -18.9,17.5 0,8.5 5.4,11.8 14.1,14.8 4.1,1.4 7.2,2.1 9.5,2.8 6.2,1.9 10.5,5.6 10.5,11.1 0,7.9 -6.6,12.2 -13.9,12.2 -13.8,0 -18,-8.7 -19.5,-17.3 h -2.4 c 0.6,6.2 4.2,19.9 21.8,19.9 12.3,0 21.8,-7.1 21.8,-19.6 0,-6.9 -3.8,-11.5 -10.6,-14.1 z"
   id="path997"
   inkscape:connector-curvature="0"
    />
			<path
   class="st0"
   d="m 713.8,131.9 c 1.1,-0.8 1.7,-1.7 1.8,-2.7 0.1,-0.8 -0.1,-1.7 -0.7,-2.3 -0.5,-0.6 -1.3,-1 -2.1,-1 -1.7,0 -2.4,0.8 -4.4,3.1 l -9.4,11.4 1.2,1.2 z"
   id="path999"
   inkscape:connector-curvature="0"
    />
			<polygon
   class="st0"
   points="641.9,148.9 632.6,148.9 632.6,207.2 635.3,207.2 635.3,156.3 667.5,207.8 670.4,207.9 670.4,148.9 667.7,148.9 667.7,190.6 642.1,149.2 "
   id="polygon1001"
    />
			<path
   class="st0"
   d="m 616.6,189.6 c -0.1,8.6 -5.8,16.1 -16.8,16.1 -9.5,0 -13.5,-5.3 -13.5,-17 v -39.9 h -9.6 v 39.8 c 0,12.9 8,19.7 23,19.7 11.8,0 19.7,-7.5 19.7,-18.8 v -40.8 h -2.8 z"
   id="path1003"
   inkscape:connector-curvature="0"
    />
		</g>
	</g>
</g>
</svg>